ETBembo-Expert.ufo
<glyph name="period" format="1">
  <advance width="261"/>
  <unicode hex="002E"/>
  <outline>
    <contour>
      <point x="133" y="-18" type="curve" smooth="yes"/>
      <point x="98" y="-18"/>
      <point x="72" y="6"/>
      <point x="72" y="39" type="curve" smooth="yes"/>
      <point x="72" y="74"/>
      <point x="97" y="97"/>
      <point x="133" y="97" type="curve" smooth="yes"/>
      <point x="168" y="97"/>
      <point x="191" y="74"/>
      <point x="191" y="40" type="curve" smooth="yes"/>
      <point x="191" y="7"/>
      <point x="168" y="-18"/>
    </contour>
  </outline>
</glyph>
<glyph name="three" format="1">
  <advance width="444"/>
  <unicode hex="0033"/>
  <outline>
    <contour>
      <point x="153" y="-184" type="curve" smooth="yes"/>
      <point x="96" y="-184"/>
      <point x="60" y="-160"/>
      <point x="60" y="-124" type="curve" smooth="yes"/>
      <point x="60" y="-92"/>
      <point x="94" y="-78"/>
      <point x="118" y="-92" type="curve" smooth="yes"/>
      <point x="124" y="-96"/>
      <point x="129" y="-101"/>
      <point x="135" y="-105" type="curve" smooth="yes"/>
      <point x="167" y="-129"/>
      <point x="183" y="-135"/>
      <point x="201" y="-135" type="curve" smooth="yes"/>
      <point x="239" y="-135"/>
      <point x="269" y="-90"/>
      <point x="269" y="-16" type="curve" smooth="yes"/>
      <point x="269" y="49"/>
      <point x="257" y="81"/>
      <point x="227" y="107" type="curve" smooth="yes"/>
      <point x="200" y="130"/>
      <point x="174" y="129"/>
      <point x="140" y="120" type="curve" smooth="yes"/>
      <point x="126" y="116"/>
      <point x="124" y="142"/>
      <point x="131" y="146" type="curve" smooth="yes"/>
      <point x="217" y="199"/>
      <point x="257" y="254"/>
      <point x="257" y="312" type="curve" smooth="yes"/>
      <point x="257" y="362"/>
      <point x="230" y="393"/>
      <point x="189" y="393" type="curve" smooth="yes"/>
      <point x="156" y="393"/>
      <point x="131" y="380"/>
      <point x="93" y="337" type="curve" smooth="yes"/>
      <point x="87" y="329"/>
      <point x="70" y="341"/>
      <point x="74" y="355" type="curve" smooth="yes"/>
      <point x="107" y="420"/>
      <point x="159" y="458"/>
      <point x="218" y="458" type="curve" smooth="yes"/>
      <point x="283" y="458"/>
      <point x="331" y="405"/>
      <point x="331" y="336" type="curve" smooth="yes"/>
      <point x="331" y="286"/>
      <point x="310" y="247"/>
      <point x="248" y="201" type="curve" smooth="yes"/>
      <point x="243" y="197"/>
      <point x="239" y="190"/>
      <point x="248" y="189" type="curve" smooth="yes"/>
      <point x="267" y="187"/>
      <point x="276" y="182"/>
      <point x="290" y="170" type="curve" smooth="yes"/>
      <point x="324" y="142"/>
      <point x="344" y="94"/>
      <point x="344" y="36" type="curve" smooth="yes"/>
      <point x="344" y="-85"/>
      <point x="261" y="-184"/>
    </contour>
  </outline>
</glyph>
<glyph name="six" format="1">
  <advance width="484"/>
  <unicode hex="0036"/>
  <outline>
    <contour>
      <point x="248" y="-14" type="curve" smooth="yes"/>
      <point x="129" y="-14"/>
      <point x="41" y="86"/>
      <point x="41" y="220" type="curve" smooth="yes"/>
      <point x="41" y="430"/>
      <point x="236" y="558"/>
      <point x="411" y="614" type="curve" smooth="yes"/>
      <point x="441" y="621"/>
      <point x="443" y="601"/>
      <point x="435" y="591" type="curve"/>
      <point x="327" y="543"/>
      <point x="254" y="493"/>
      <point x="187" y="399" type="curve" smooth="yes"/>
      <point x="184" y="394"/>
      <point x="176" y="383"/>
      <point x="185" y="386" type="curve" smooth="yes"/>
      <point x="211" y="394"/>
      <point x="222" y="395"/>
      <point x="248" y="395" type="curve" smooth="yes"/>
      <point x="364" y="395"/>
      <point x="445" y="314"/>
      <point x="445" y="197" type="curve" smooth="yes"/>
      <point x="445" y="77"/>
      <point x="360" y="-14"/>
    </contour>
    <contour>
      <point x="235" y="369" type="curve" smooth="yes"/>
      <point x="215" y="369"/>
      <point x="199" y="365"/>
      <point x="171" y="353" type="curve" smooth="yes"/>
      <point x="164" y="350"/>
      <point x="158" y="342"/>
      <point x="154" y="332" type="curve" smooth="yes"/>
      <point x="133" y="277"/>
      <point x="127" y="247"/>
      <point x="127" y="197" type="curve" smooth="yes"/>
      <point x="127" y="82"/>
      <point x="173" y="14"/>
      <point x="245" y="14" type="curve" smooth="yes"/>
      <point x="272" y="14"/>
      <point x="298" y="24"/>
      <point x="318" y="44" type="curve" smooth="yes"/>
      <point x="346" y="72"/>
      <point x="360" y="116"/>
      <point x="360" y="181" type="curve" smooth="yes"/>
      <point x="360" y="301"/>
      <point x="313" y="369"/>
    </contour>
  </outline>
</glyph>
<glyph name="seven" format="1">
  <advance width="471"/>
  <unicode hex="0037"/>
  <outline>
    <contour>
      <point x="192" y="-166" type="curve" smooth="yes"/>
      <point x="189" y="-173"/>
      <point x="181" y="-178"/>
      <point x="174" y="-177" type="curve" smooth="yes"/>
      <point x="143" y="-172" type="line" smooth="yes"/>
      <point x="139" y="-171"/>
      <point x="130" y="-165"/>
      <point x="133" y="-156" type="curve" smooth="yes"/>
      <point x="190" y="-17"/>
      <point x="305" y="241"/>
      <point x="363" y="360" type="curve" smooth="yes"/>
      <point x="367" y="368"/>
      <point x="351" y="369"/>
      <point x="346" y="369" type="curve" smooth="yes"/>
      <point x="289" y="367"/>
      <point x="179" y="368"/>
      <point x="127" y="369" type="curve" smooth="yes"/>
      <point x="101" y="370"/>
      <point x="96" y="364"/>
      <point x="83" y="317" type="curve" smooth="yes"/>
      <point x="71" y="274" type="line" smooth="yes"/>
      <point x="66" y="254"/>
      <point x="41" y="268"/>
      <point x="42" y="274" type="curve" smooth="yes"/>
      <point x="46" y="317"/>
      <point x="55" y="397"/>
      <point x="63" y="431" type="curve" smooth="yes"/>
      <point x="66" y="437"/>
      <point x="76" y="442"/>
      <point x="84" y="442" type="curve" smooth="yes"/>
      <point x="170" y="441"/>
      <point x="336" y="441"/>
      <point x="418" y="442" type="curve" smooth="yes"/>
      <point x="446" y="443"/>
      <point x="439" y="421"/>
      <point x="432" y="403" type="curve" smooth="yes"/>
      <point x="372" y="262"/>
      <point x="211" y="-136"/>
    </contour>
  </outline>
</glyph>
<glyph name="L" format="1">
  <advance width="732"/>
  <unicode hex="004C"/>
  <outline>
    <contour>
      <point x="704" y="100" type="curve" smooth="yes"/>
      <point x="704" y="39"/>
      <point x="640" y="-7"/>
      <point x="565" y="-7" type="curve" smooth="yes"/>
      <point x="493" y="-7"/>
      <point x="426" y="28"/>
      <point x="426" y="83" type="curve" smooth="yes"/>
      <point x="426" y="126"/>
      <point x="444" y="151"/>
      <point x="483" y="170" type="curve" smooth="yes"/>
      <point x="495" y="176"/>
      <point x="487" y="182"/>
      <point x="481" y="185" type="curve" smooth="yes"/>
      <point x="446" y="205"/>
      <point x="432" y="229"/>
      <point x="432" y="261" type="curve" smooth="yes"/>
      <point x="432" y="316"/>
      <point x="497" y="356"/>
      <point x="564" y="356" type="curve" smooth="yes"/>
      <point x="631" y="356"/>
      <point x="682" y="321"/>
      <point x="682" y="271" type="curve" smooth="yes"/>
      <point x="682" y="240"/>
      <point x="667" y="217"/>
      <point x="633" y="199" type="curve" smooth="yes"/>
      <point x="628" y="196"/>
      <point x="627" y="192"/>
      <point x="636" y="187" type="curve" smooth="yes"/>
      <point x="680" y="165"/>
      <point x="704" y="138"/>
    </contour>
    <contour>
      <point x="606" y="638" type="curve" smooth="yes"/>
      <point x="140" y="-22" type="line"/>
      <point x="137" y="-27" type="line" smooth="yes"/>
      <point x="133" y="-32"/>
      <point x="127" y="-37"/>
      <point x="120" y="-36" type="curve" smooth="yes"/>
      <point x="94" y="-32" type="line" smooth="yes"/>
      <point x="82" y="-30"/>
      <point x="85" y="-16"/>
      <point x="90" y="-9" type="curve" smooth="yes"/>
      <point x="555" y="650" type="line" smooth="yes"/>
      <point x="560" y="657"/>
      <point x="565" y="661"/>
      <point x="573" y="660" type="curve" smooth="yes"/>
      <point x="601" y="658" type="line" smooth="yes"/>
      <point x="611" y="658"/>
      <point x="611" y="645"/>
    </contour>
    <contour>
      <point x="622" y="270" type="curve" smooth="yes"/>
      <point x="622" y="304"/>
      <point x="600" y="328"/>
      <point x="563" y="328" type="curve" smooth="yes"/>
      <point x="523" y="328"/>
      <point x="499" y="304"/>
      <point x="499" y="277" type="curve" smooth="yes"/>
      <point x="499" y="243"/>
      <point x="536" y="230"/>
      <point x="577" y="216" type="curve" smooth="yes"/>
      <point x="583" y="214"/>
      <point x="587" y="214"/>
      <point x="592" y="217" type="curve" smooth="yes"/>
      <point x="615" y="233"/>
      <point x="622" y="246"/>
    </contour>
    <contour>
      <point x="636" y="86" type="curve" smooth="yes"/>
      <point x="636" y="100"/>
      <point x="630" y="113"/>
      <point x="619" y="122" type="curve" smooth="yes"/>
      <point x="606" y="132"/>
      <point x="584" y="144"/>
      <point x="554" y="154" type="curve" smooth="yes"/>
      <point x="544" y="157"/>
      <point x="541" y="157"/>
      <point x="537" y="154" type="curve" smooth="yes"/>
      <point x="504" y="137"/>
      <point x="493" y="117"/>
      <point x="493" y="91" type="curve" smooth="yes"/>
      <point x="493" y="51"/>
      <point x="524" y="28"/>
      <point x="566" y="28" type="curve" smooth="yes"/>
      <point x="608" y="28"/>
      <point x="636" y="50"/>
    </contour>
    <contour>
      <point x="141" y="312" type="curve" smooth="yes"/>
      <point x="87" y="312"/>
      <point x="38" y="337"/>
      <point x="38" y="364" type="curve" smooth="yes"/>
      <point x="38" y="378"/>
      <point x="54" y="396"/>
      <point x="70" y="396" type="curve" smooth="yes"/>
      <point x="94" y="396"/>
      <point x="113" y="367"/>
      <point x="131" y="354" type="curve" smooth="yes"/>
      <point x="139" y="348"/>
      <point x="148" y="345"/>
      <point x="159" y="345" type="curve" smooth="yes"/>
      <point x="204" y="345"/>
      <point x="230" y="371"/>
      <point x="230" y="418" type="curve" smooth="yes"/>
      <point x="230" y="464"/>
      <point x="202" y="482"/>
      <point x="147" y="482" type="curve" smooth="yes"/>
      <point x="123" y="482"/>
      <point x="106" y="475"/>
      <point x="83" y="464" type="curve" smooth="yes"/>
      <point x="79" y="462"/>
      <point x="74" y="461"/>
      <point x="69" y="464" type="curve" smooth="yes"/>
      <point x="62" y="468"/>
      <point x="61" y="470"/>
      <point x="61" y="479" type="curve" smooth="yes"/>
      <point x="66" y="528"/>
      <point x="69" y="606"/>
      <point x="67" y="647" type="curve"/>
      <point x="71" y="664"/>
      <point x="91" y="662"/>
      <point x="103" y="661" type="curve" smooth="yes"/>
      <point x="125" y="660"/>
      <point x="179" y="659"/>
      <point x="214" y="660" type="curve" smooth="yes"/>
      <point x="223" y="661"/>
      <point x="238" y="660"/>
      <point x="244" y="660" type="curve" smooth="yes"/>
      <point x="250" y="660"/>
      <point x="255" y="665"/>
      <point x="258" y="668" type="curve" smooth="yes"/>
      <point x="262" y="671"/>
      <point x="265" y="672"/>
      <point x="268" y="672" type="curve" smooth="yes"/>
      <point x="278" y="672" type="line" smooth="yes"/>
      <point x="284" y="669"/>
      <point x="284" y="662"/>
      <point x="283" y="654" type="curve" smooth="yes"/>
      <point x="277" y="606" type="line" smooth="yes"/>
      <point x="273" y="598"/>
      <point x="273" y="593"/>
      <point x="258" y="593" type="curve" smooth="yes"/>
      <point x="118" y="595" type="line" smooth="yes"/>
      <point x="113" y="594"/>
      <point x="108" y="589"/>
      <point x="106" y="583" type="curve" smooth="yes"/>
      <point x="105" y="544" type="line" smooth="yes"/>
      <point x="105" y="543"/>
      <point x="106" y="531"/>
      <point x="112" y="532" type="curve" smooth="yes"/>
      <point x="127" y="537"/>
      <point x="148" y="544"/>
      <point x="168" y="544" type="curve" smooth="yes"/>
      <point x="249" y="544"/>
      <point x="297" y="497"/>
      <point x="297" y="432" type="curve" smooth="yes"/>
      <point x="297" y="363"/>
      <point x="234" y="312"/>
    </contour>
  </outline>
</glyph>
<glyph name="N" format="1">
  <advance width="727"/>
  <unicode hex="004E"/>
  <outline>
    <contour>
      <point x="157" y="-17" type="line" smooth="yes"/>
      <point x="153" y="-23"/>
      <point x="145" y="-36"/>
      <point x="136" y="-36" type="curve" smooth="yes"/>
      <point x="107" y="-34" type="line" smooth="yes"/>
      <point x="95" y="-33"/>
      <point x="96" y="-19"/>
      <point x="101" y="-11" type="curve" smooth="yes"/>
      <point x="571" y="654" type="line" smooth="yes"/>
      <point x="576" y="660"/>
      <point x="582" y="661"/>
      <point x="590" y="660" type="curve" smooth="yes"/>
      <point x="612" y="658" type="line" smooth="yes"/>
      <point x="627" y="656"/>
      <point x="621" y="638"/>
      <point x="616" y="631" type="curve" smooth="yes"/>
    </contour>
    <contour>
      <point x="244" y="298" type="curve" smooth="yes"/>
      <point x="191" y="300"/>
      <point x="133" y="300"/>
      <point x="82" y="298" type="curve" smooth="yes"/>
      <point x="76" y="298"/>
      <point x="73" y="306"/>
      <point x="74" y="314" type="curve" smooth="yes"/>
      <point x="74" y="321"/>
      <point x="77" y="329"/>
      <point x="81" y="330" type="curve" smooth="yes"/>
      <point x="116" y="333" type="line" smooth="yes"/>
      <point x="121" y="334"/>
      <point x="130" y="341"/>
      <point x="130" y="351" type="curve" smooth="yes"/>
      <point x="130" y="559" type="line" smooth="yes"/>
      <point x="130" y="561"/>
      <point x="129" y="568"/>
      <point x="127" y="567" type="curve" smooth="yes"/>
      <point x="115" y="560"/>
      <point x="105" y="555"/>
      <point x="96" y="550" type="curve" smooth="yes"/>
      <point x="86" y="546"/>
      <point x="76" y="542"/>
      <point x="65" y="538" type="curve" smooth="yes"/>
      <point x="51" y="537"/>
      <point x="44" y="553"/>
      <point x="50" y="561" type="curve" smooth="yes"/>
      <point x="91" y="585"/>
      <point x="133" y="618"/>
      <point x="153" y="642" type="curve" smooth="yes"/>
      <point x="157" y="646"/>
      <point x="195" y="647"/>
      <point x="195" y="640" type="curve" smooth="yes"/>
      <point x="195" y="352" type="line" smooth="yes"/>
      <point x="195" y="338"/>
      <point x="200" y="334"/>
      <point x="214" y="333" type="curve" smooth="yes"/>
      <point x="244" y="331" type="line" smooth="yes"/>
      <point x="246" y="331"/>
      <point x="251" y="322"/>
      <point x="251" y="314" type="curve" smooth="yes"/>
      <point x="251" y="305"/>
      <point x="247" y="298"/>
    </contour>
    <contour>
      <point x="530" y="-13" type="curve" smooth="yes"/>
      <point x="483" y="-13"/>
      <point x="429" y="4"/>
      <point x="429" y="34" type="curve" smooth="yes"/>
      <point x="429" y="50"/>
      <point x="445" y="63"/>
      <point x="462" y="63" type="curve" smooth="yes"/>
      <point x="480" y="63"/>
      <point x="497" y="48"/>
      <point x="511" y="38" type="curve" smooth="yes"/>
      <point x="528" y="26"/>
      <point x="538" y="23"/>
      <point x="550" y="23" type="curve" smooth="yes"/>
      <point x="587" y="23"/>
      <point x="621" y="59"/>
      <point x="621" y="104" type="curve" smooth="yes"/>
      <point x="621" y="138"/>
      <point x="597" y="163"/>
      <point x="571" y="163" type="curve" smooth="yes"/>
      <point x="559" y="163"/>
      <point x="550" y="160"/>
      <point x="531" y="146" type="curve" smooth="yes"/>
      <point x="517" y="136"/>
      <point x="499" y="163"/>
      <point x="508" y="172" type="curve" smooth="yes"/>
      <point x="564" y="206"/>
      <point x="591" y="237"/>
      <point x="591" y="256" type="curve" smooth="yes"/>
      <point x="591" y="275"/>
      <point x="573" y="292"/>
      <point x="548" y="292" type="curve" smooth="yes"/>
      <point x="523" y="292"/>
      <point x="496" y="275"/>
      <point x="478" y="241" type="curve" smooth="yes"/>
      <point x="473" y="230"/>
      <point x="440" y="242"/>
      <point x="444" y="254" type="curve" smooth="yes"/>
      <point x="469" y="308"/>
      <point x="515" y="340"/>
      <point x="567" y="340" type="curve" smooth="yes"/>
      <point x="615" y="340"/>
      <point x="657" y="313"/>
      <point x="657" y="272" type="curve" smooth="yes"/>
      <point x="657" y="251"/>
      <point x="646" y="233"/>
      <point x="626" y="216" type="curve" smooth="yes"/>
      <point x="615" y="206"/>
      <point x="628" y="204"/>
      <point x="633" y="202" type="curve" smooth="yes"/>
      <point x="669" y="188"/>
      <point x="691" y="157"/>
      <point x="691" y="117" type="curve" smooth="yes"/>
      <point x="691" y="46"/>
      <point x="613" y="-13"/>
    </contour>
  </outline>
</glyph>
<glyph name="X" format="1">
  <advance width="522"/>
  <unicode hex="0058"/>
  <outline>
    <contour>
      <point x="224" y="28" type="curve" smooth="yes"/>
      <point x="227" y="29"/>
      <point x="231" y="29"/>
      <point x="234" y="28" type="curve" smooth="yes"/>
      <point x="244" y="27"/>
      <point x="245" y="-1"/>
      <point x="236" y="-3" type="curve" smooth="yes"/>
      <point x="235" y="-3"/>
      <point x="234" y="-3"/>
      <point x="233" y="-3" type="curve" smooth="yes"/>
      <point x="230" y="-3" type="line" smooth="yes"/>
      <point x="184" y="-1"/>
      <point x="89" y="1"/>
      <point x="30" y="-3" type="curve" smooth="yes"/>
      <point x="25" y="-4"/>
      <point x="20" y="-3"/>
      <point x="17" y="2" type="curve" smooth="yes"/>
      <point x="13" y="8"/>
      <point x="14" y="17"/>
      <point x="17" y="23" type="curve" smooth="yes"/>
      <point x="19" y="29"/>
      <point x="25" y="28"/>
      <point x="30" y="28" type="curve" smooth="yes"/>
      <point x="62" y="31"/>
      <point x="68" y="34"/>
      <point x="74" y="43" type="curve" smooth="yes"/>
      <point x="83" y="55"/>
      <point x="85" y="63"/>
      <point x="85" y="133" type="curve" smooth="yes"/>
      <point x="85" y="330" type="line" smooth="yes"/>
      <point x="85" y="343"/>
      <point x="76" y="347"/>
      <point x="69" y="348" type="curve" smooth="yes"/>
      <point x="28" y="351" type="line" smooth="yes"/>
      <point x="22" y="351"/>
      <point x="18" y="356"/>
      <point x="17" y="359" type="curve" smooth="yes"/>
      <point x="16" y="363"/>
      <point x="16" y="369"/>
      <point x="17" y="373" type="curve" smooth="yes"/>
      <point x="19" y="377"/>
      <point x="31" y="383"/>
      <point x="32" y="384" type="curve" smooth="yes"/>
      <point x="46" y="388"/>
      <point x="65" y="394"/>
      <point x="78" y="403" type="curve" smooth="yes"/>
      <point x="82" y="405"/>
      <point x="85" y="410"/>
      <point x="85" y="415" type="curve" smooth="yes"/>
      <point x="90" y="492"/>
      <point x="107" y="579"/>
      <point x="160" y="637" type="curve" smooth="yes"/>
      <point x="204" y="686"/>
      <point x="249" y="710"/>
      <point x="309" y="710" type="curve" smooth="yes"/>
      <point x="330" y="710"/>
      <point x="351" y="703"/>
      <point x="372" y="703" type="curve" smooth="yes"/>
      <point x="391" y="703"/>
      <point x="403" y="708"/>
      <point x="418" y="727" type="curve"/>
      <point x="429" y="731"/>
      <point x="443" y="724"/>
      <point x="445" y="716" type="curve" smooth="yes"/>
      <point x="445" y="88" type="line" smooth="yes"/>
      <point x="445" y="37"/>
      <point x="447" y="28"/>
      <point x="496" y="28" type="curve" smooth="yes"/>
      <point x="500" y="30"/>
      <point x="505" y="29"/>
      <point x="509" y="28" type="curve" smooth="yes"/>
      <point x="515" y="27"/>
      <point x="517" y="12"/>
      <point x="514" y="3" type="curve" smooth="yes"/>
      <point x="513" y="-1"/>
      <point x="512" y="-3"/>
      <point x="507" y="-3" type="curve" smooth="yes"/>
      <point x="506" y="-3"/>
      <point x="504" y="-3"/>
      <point x="502" y="-3" type="curve" smooth="yes"/>
      <point x="454" y="-1"/>
      <point x="355" y="-1"/>
      <point x="301" y="-3" type="curve" smooth="yes"/>
      <point x="299" y="-3"/>
      <point x="298" y="-3"/>
      <point x="297" y="-3" type="curve" smooth="yes"/>
      <point x="292" y="-3"/>
      <point x="290" y="-2"/>
      <point x="288" y="3" type="curve" smooth="yes"/>
      <point x="285" y="12"/>
      <point x="286" y="27"/>
      <point x="295" y="28" type="curve" smooth="yes"/>
      <point x="303" y="28" type="line" smooth="yes"/>
      <point x="365" y="28"/>
      <point x="368" y="29"/>
      <point x="368" y="133" type="curve" smooth="yes"/>
      <point x="369" y="336" type="line" smooth="yes"/>
      <point x="369" y="349"/>
      <point x="358" y="353"/>
      <point x="350" y="353" type="curve" smooth="yes"/>
      <point x="299" y="354"/>
      <point x="223" y="357"/>
      <point x="180" y="353" type="curve" smooth="yes"/>
      <point x="172" y="352"/>
      <point x="162" y="344"/>
      <point x="162" y="333" type="curve" smooth="yes"/>
      <point x="162" y="88" type="line" smooth="yes"/>
      <point x="162" y="39"/>
      <point x="174" y="28"/>
    </contour>
    <contour>
      <point x="368" y="625" type="line"/>
      <point x="334" y="648"/>
      <point x="297" y="663"/>
      <point x="267" y="663" type="curve" smooth="yes"/>
      <point x="240" y="663"/>
      <point x="219" y="647"/>
      <point x="203" y="625" type="curve" smooth="yes"/>
      <point x="180" y="594"/>
      <point x="162" y="522"/>
      <point x="162" y="418" type="curve" smooth="yes"/>
      <point x="162" y="407"/>
      <point x="179" y="407"/>
      <point x="187" y="406" type="curve" smooth="yes"/>
      <point x="248" y="404"/>
      <point x="310" y="408"/>
      <point x="349" y="408" type="curve" smooth="yes"/>
      <point x="359" y="408"/>
      <point x="367" y="417"/>
      <point x="368" y="430" type="curve" smooth="yes"/>
    </contour>
  </outline>
</glyph>
<glyph name="f" format="1">
  <advance width="410"/>
  <unicode hex="0066"/>
  <outline>
    <contour>
      <point x="325" y="377" type="curve" smooth="yes"/>
      <point x="323" y="425"/>
      <point x="318" y="432"/>
      <point x="256" y="432" type="curve" smooth="yes"/>
      <point x="184" y="432" type="line" smooth="yes"/>
      <point x="177" y="432"/>
      <point x="169" y="425"/>
      <point x="168" y="417" type="curve" smooth="yes"/>
      <point x="166" y="386"/>
      <point x="167" y="324"/>
      <point x="168" y="293" type="curve" smooth="yes"/>
      <point x="168" y="286"/>
      <point x="172" y="279"/>
      <point x="181" y="278" type="curve" smooth="yes"/>
      <point x="212" y="277"/>
      <point x="242" y="277"/>
      <point x="274" y="278" type="curve" smooth="yes"/>
      <point x="303" y="279"/>
      <point x="308" y="285"/>
      <point x="310" y="310" type="curve" smooth="yes"/>
      <point x="312" y="330"/>
      <point x="340" y="326"/>
      <point x="342" y="311" type="curve" smooth="yes"/>
      <point x="340" y="284"/>
      <point x="340" y="225"/>
      <point x="341" y="185" type="curve" smooth="yes"/>
      <point x="339" y="171"/>
      <point x="313" y="173"/>
      <point x="311" y="184" type="curve" smooth="yes"/>
      <point x="308" y="220"/>
      <point x="304" y="229"/>
      <point x="274" y="231" type="curve" smooth="yes"/>
      <point x="244" y="233"/>
      <point x="210" y="232"/>
      <point x="184" y="232" type="curve" smooth="yes"/>
      <point x="173" y="232"/>
      <point x="168" y="220"/>
      <point x="168" y="210" type="curve" smooth="yes"/>
      <point x="168" y="81"/>
      <point x="168" y="106"/>
      <point x="168" y="76" type="curve" smooth="yes"/>
      <point x="168" y="41"/>
      <point x="178" y="34"/>
      <point x="215" y="34" type="curve" smooth="yes"/>
      <point x="222" y="34" type="line" smooth="yes"/>
      <point x="238" y="34"/>
      <point x="234" y="-4"/>
      <point x="220" y="-2" type="curve" smooth="yes"/>
      <point x="170" y="-1"/>
      <point x="100" y="-1"/>
      <point x="48" y="-2" type="curve" smooth="yes"/>
      <point x="30" y="-3"/>
      <point x="30" y="34"/>
      <point x="47" y="34" type="curve" smooth="yes"/>
      <point x="83" y="37"/>
      <point x="91" y="42"/>
      <point x="91" y="76" type="curve" smooth="yes"/>
      <point x="91" y="400" type="line" smooth="yes"/>
      <point x="91" y="435"/>
      <point x="79" y="443"/>
      <point x="45" y="445" type="curve" smooth="yes"/>
      <point x="34" y="448"/>
      <point x="34" y="478"/>
      <point x="51" y="478" type="curve" smooth="yes"/>
      <point x="111" y="476"/>
      <point x="241" y="476"/>
      <point x="329" y="478" type="curve" smooth="yes"/>
      <point x="341" y="478"/>
      <point x="355" y="474"/>
      <point x="355" y="459" type="curve" smooth="yes"/>
      <point x="357" y="439"/>
      <point x="359" y="404"/>
      <point x="356" y="378" type="curve" smooth="yes"/>
      <point x="355" y="366"/>
      <point x="328" y="368"/>
    </contour>
  </outline>
</glyph>
<glyph name="j" format="1">
  <advance width="313"/>
  <unicode hex="006A"/>
  <outline>
    <contour>
      <point x="241" y="442" type="curve" smooth="yes"/>
      <point x="215" y="440"/>
      <point x="203" y="434"/>
      <point x="203" y="399" type="curve" smooth="yes"/>
      <point x="203" y="374" type="line"/>
      <point x="203" y="55" type="line" smooth="yes"/>
      <point x="203" y="25"/>
      <point x="199" y="-13"/>
      <point x="193" y="-42" type="curve" smooth="yes"/>
      <point x="186" y="-77"/>
      <point x="175" y="-117"/>
      <point x="158" y="-146" type="curve" smooth="yes"/>
      <point x="133" y="-186"/>
      <point x="101" y="-212"/>
      <point x="58" y="-212" type="curve" smooth="yes"/>
      <point x="20" y="-212"/>
      <point x="-17" y="-198"/>
      <point x="-17" y="-165" type="curve" smooth="yes"/>
      <point x="-17" y="-145"/>
      <point x="5" y="-120"/>
      <point x="25" y="-120" type="curve" smooth="yes"/>
      <point x="40" y="-120"/>
      <point x="58" y="-146"/>
      <point x="71" y="-155" type="curve" smooth="yes"/>
      <point x="82" y="-162"/>
      <point x="102" y="-154"/>
      <point x="110" y="-141" type="curve" smooth="yes"/>
      <point x="124" y="-120"/>
      <point x="126" y="-94"/>
      <point x="126" y="7" type="curve" smooth="yes"/>
      <point x="126" y="374" type="line"/>
      <point x="126" y="399" type="line" smooth="yes"/>
      <point x="125" y="431"/>
      <point x="114" y="442"/>
      <point x="79" y="442" type="curve" smooth="yes"/>
      <point x="71" y="442" type="line" smooth="yes"/>
      <point x="56" y="444"/>
      <point x="57" y="465"/>
      <point x="62" y="473" type="curve" smooth="yes"/>
      <point x="65" y="480"/>
      <point x="72" y="478"/>
      <point x="78" y="478" type="curve" smooth="yes"/>
      <point x="119" y="475"/>
      <point x="206" y="476"/>
      <point x="250" y="479" type="curve" smooth="yes"/>
      <point x="264" y="477"/>
      <point x="264" y="455"/>
      <point x="260" y="446" type="curve" smooth="yes"/>
      <point x="258" y="441"/>
      <point x="245" y="442"/>
    </contour>
  </outline>
</glyph>
<glyph name="l" format="1">
  <advance width="436"/>
  <unicode hex="006C"/>
  <outline>
    <contour>
      <point x="366" y="9" type="line" smooth="yes"/>
      <point x="359" y="1"/>
      <point x="355" y="0"/>
      <point x="344" y="-2" type="curve" smooth="yes"/>
      <point x="204" y="0"/>
      <point x="164" y="0"/>
      <point x="54" y="-2" type="curve" smooth="yes"/>
      <point x="46" y="-2"/>
      <point x="31" y="-2"/>
      <point x="31" y="16" type="curve" smooth="yes"/>
      <point x="31" y="32"/>
      <point x="38" y="41"/>
      <point x="56" y="37" type="curve"/>
      <point x="97" y="37"/>
      <point x="101" y="46"/>
      <point x="101" y="105" type="curve" smooth="yes"/>
      <point x="101" y="400" type="line" smooth="yes"/>
      <point x="101" y="435"/>
      <point x="92" y="445"/>
      <point x="55" y="445" type="curve" smooth="yes"/>
      <point x="52" y="444"/>
      <point x="44" y="445"/>
      <point x="41" y="446" type="curve" smooth="yes"/>
      <point x="33" y="451"/>
      <point x="33" y="467"/>
      <point x="39" y="475" type="curve" smooth="yes"/>
      <point x="44" y="481"/>
      <point x="56" y="480"/>
      <point x="63" y="480" type="curve" smooth="yes"/>
      <point x="106" y="478"/>
      <point x="183" y="477"/>
      <point x="241" y="479" type="curve" smooth="yes"/>
      <point x="252" y="480"/>
      <point x="258" y="480"/>
      <point x="261" y="470" type="curve" smooth="yes"/>
      <point x="265" y="459"/>
      <point x="262" y="441"/>
      <point x="252" y="441" type="curve" smooth="yes"/>
      <point x="243" y="440"/>
      <point x="235" y="442"/>
      <point x="227" y="442" type="curve" smooth="yes"/>
      <point x="183" y="441"/>
      <point x="179" y="433"/>
      <point x="179" y="384" type="curve" smooth="yes"/>
      <point x="178" y="78" type="line" smooth="yes"/>
      <point x="178" y="46"/>
      <point x="201" y="47"/>
      <point x="230" y="47" type="curve" smooth="yes"/>
      <point x="283" y="47" type="line" smooth="yes"/>
      <point x="316" y="47"/>
      <point x="332" y="52"/>
      <point x="344" y="63" type="curve" smooth="yes"/>
      <point x="361" y="78"/>
      <point x="375" y="103"/>
      <point x="388" y="121" type="curve" smooth="yes"/>
      <point x="394" y="129"/>
      <point x="420" y="120"/>
      <point x="416" y="111" type="curve" smooth="yes"/>
    </contour>
  </outline>
</glyph>
<glyph name="s" format="1">
  <advance width="384"/>
  <unicode hex="0073"/>
  <outline>
    <contour>
      <point x="338" y="123" type="curve" smooth="yes"/>
      <point x="338" y="44"/>
      <point x="280" y="-14"/>
      <point x="194" y="-14" type="curve" smooth="yes"/>
      <point x="169" y="-14"/>
      <point x="146" y="-6"/>
      <point x="123" y="2" type="curve" smooth="yes"/>
      <point x="117" y="3"/>
      <point x="113" y="5"/>
      <point x="106" y="5" type="curve" smooth="yes"/>
      <point x="104" y="5"/>
      <point x="101" y="5"/>
      <point x="98" y="0" type="curve" smooth="yes"/>
      <point x="89" y="-5"/>
      <point x="80" y="-3"/>
      <point x="71" y="0" type="curve"/>
      <point x="68" y="34"/>
      <point x="57" y="85"/>
      <point x="56" y="111" type="curve" smooth="yes"/>
      <point x="55" y="133"/>
      <point x="84" y="135"/>
      <point x="88" y="123" type="curve"/>
      <point x="88" y="123" type="line"/>
      <point x="105" y="68"/>
      <point x="131" y="26"/>
      <point x="188" y="26" type="curve" smooth="yes"/>
      <point x="237" y="26"/>
      <point x="268" y="59"/>
      <point x="268" y="101" type="curve" smooth="yes"/>
      <point x="268" y="158"/>
      <point x="207" y="195"/>
      <point x="166" y="224" type="curve" smooth="yes"/>
      <point x="115" y="261"/>
      <point x="59" y="302"/>
      <point x="59" y="373" type="curve" smooth="yes"/>
      <point x="59" y="441"/>
      <point x="110" y="490"/>
      <point x="185" y="490" type="curve" smooth="yes"/>
      <point x="210" y="490"/>
      <point x="223" y="487"/>
      <point x="250" y="478" type="curve" smooth="yes"/>
      <point x="264" y="472"/>
      <point x="269" y="471"/>
      <point x="272" y="471" type="curve" smooth="yes"/>
      <point x="274" y="471"/>
      <point x="275" y="472"/>
      <point x="280" y="477" type="curve" smooth="yes"/>
      <point x="287" y="480"/>
      <point x="296" y="480"/>
      <point x="304" y="476" type="curve"/>
      <point x="308" y="438"/>
      <point x="311" y="404"/>
      <point x="317" y="375" type="curve" smooth="yes"/>
      <point x="317" y="358"/>
      <point x="293" y="362"/>
      <point x="288" y="367" type="curve" smooth="yes"/>
      <point x="255" y="430"/>
      <point x="233" y="453"/>
      <point x="191" y="453" type="curve" smooth="yes"/>
      <point x="151" y="453"/>
      <point x="130" y="429"/>
      <point x="130" y="393" type="curve" smooth="yes"/>
      <point x="130" y="371"/>
      <point x="142" y="351"/>
      <point x="161" y="332" type="curve" smooth="yes"/>
      <point x="182" y="311"/>
      <point x="207" y="294"/>
      <point x="231" y="276" type="curve" smooth="yes"/>
      <point x="283" y="238"/>
      <point x="338" y="194"/>
    </contour>
  </outline>
</glyph>
<glyph name="w" format="1">
  <advance width="766"/>
  <unicode hex="0077"/>
  <outline>
    <contour>
      <point x="733" y="445" type="curve" smooth="yes"/>
      <point x="696" y="445"/>
      <point x="687" y="440"/>
      <point x="667" y="384" type="curve" smooth="yes"/>
      <point x="530" y="8" type="line" smooth="yes"/>
      <point x="528" y="3"/>
      <point x="515" y="-12"/>
      <point x="505" y="-13" type="curve" smooth="yes"/>
      <point x="497" y="-14"/>
      <point x="489" y="-13"/>
      <point x="482" y="-12" type="curve" smooth="yes"/>
      <point x="474" y="-10"/>
      <point x="470" y="-2"/>
      <point x="465" y="7" type="curve" smooth="yes"/>
      <point x="393" y="188" type="line" smooth="yes"/>
      <point x="389" y="196"/>
      <point x="386" y="199"/>
      <point x="384" y="193" type="curve" smooth="yes"/>
      <point x="307" y="-5" type="line" smooth="yes"/>
      <point x="304" y="-14"/>
      <point x="284" y="-16"/>
      <point x="269" y="-13" type="curve" smooth="yes"/>
      <point x="260" y="-11"/>
      <point x="249" y="2"/>
      <point x="248" y="6" type="curve" smooth="yes"/>
      <point x="203" y="129"/>
      <point x="146" y="281"/>
      <point x="110" y="373" type="curve" smooth="yes"/>
      <point x="85" y="440"/>
      <point x="85" y="442"/>
      <point x="34" y="443" type="curve" smooth="yes"/>
      <point x="25" y="445"/>
      <point x="23" y="444"/>
      <point x="20" y="452" type="curve" smooth="yes"/>
      <point x="19" y="457"/>
      <point x="19" y="460"/>
      <point x="20" y="465" type="curve" smooth="yes"/>
      <point x="21" y="473"/>
      <point x="30" y="478"/>
      <point x="39" y="479" type="curve" smooth="yes"/>
      <point x="75" y="480"/>
      <point x="77" y="476"/>
      <point x="112" y="476" type="curve" smooth="yes"/>
      <point x="144" y="476"/>
      <point x="148" y="478"/>
      <point x="194" y="478" type="curve" smooth="yes"/>
      <point x="202" y="478"/>
      <point x="211" y="477"/>
      <point x="212" y="468" type="curve" smooth="yes"/>
      <point x="212" y="458"/>
      <point x="208" y="448"/>
      <point x="204" y="447" type="curve" smooth="yes"/>
      <point x="189" y="447"/>
      <point x="170" y="449"/>
      <point x="170" y="429" type="curve" smooth="yes"/>
      <point x="170" y="423"/>
      <point x="172" y="415"/>
      <point x="183" y="386" type="curve" smooth="yes"/>
      <point x="291" y="103" type="line" smooth="yes"/>
      <point x="293" y="99"/>
      <point x="297" y="103"/>
      <point x="300" y="110" type="curve" smooth="yes"/>
      <point x="360" y="267" type="line"/>
      <point x="309" y="396" type="line" smooth="yes"/>
      <point x="292" y="440"/>
      <point x="294" y="444"/>
      <point x="244" y="445" type="curve" smooth="yes"/>
      <point x="239" y="447"/>
      <point x="234" y="459"/>
      <point x="236" y="469" type="curve" smooth="yes"/>
      <point x="237" y="475"/>
      <point x="242" y="478"/>
      <point x="253" y="478" type="curve" smooth="yes"/>
      <point x="323" y="475"/>
      <point x="463" y="476"/>
      <point x="533" y="478" type="curve" smooth="yes"/>
      <point x="550" y="479"/>
      <point x="546" y="448"/>
      <point x="533" y="445" type="curve" smooth="yes"/>
      <point x="486" y="444"/>
      <point x="481" y="440"/>
      <point x="464" y="396" type="curve" smooth="yes"/>
      <point x="426" y="300" type="line"/>
      <point x="453" y="233"/>
      <point x="476" y="174"/>
      <point x="503" y="107" type="curve" smooth="yes"/>
      <point x="506" y="102"/>
      <point x="511" y="98"/>
      <point x="514" y="109" type="curve" smooth="yes"/>
      <point x="642" y="458"/>
      <point x="616" y="388"/>
      <point x="626" y="416" type="curve" smooth="yes"/>
      <point x="637" y="447"/>
      <point x="624" y="444"/>
      <point x="590" y="445" type="curve" smooth="yes"/>
      <point x="573" y="449"/>
      <point x="580" y="479"/>
      <point x="594" y="478" type="curve" smooth="yes"/>
      <point x="629" y="475"/>
      <point x="698" y="477"/>
      <point x="733" y="478" type="curve" smooth="yes"/>
      <point x="748" y="479"/>
      <point x="753" y="445"/>
    </contour>
    <contour>
      <point x="413" y="445" type="curve" smooth="yes"/>
      <point x="403" y="446"/>
      <point x="391" y="446"/>
      <point x="384" y="445" type="curve" smooth="yes"/>
      <point x="371" y="445"/>
      <point x="368" y="442"/>
      <point x="373" y="430" type="curve" smooth="yes"/>
      <point x="383" y="407"/>
      <point x="386" y="396"/>
      <point x="396" y="374" type="curve" smooth="yes"/>
      <point x="397" y="370"/>
      <point x="403" y="374"/>
      <point x="404" y="377" type="curve" smooth="yes"/>
      <point x="417" y="413" type="line" smooth="yes"/>
      <point x="424" y="433"/>
      <point x="426" y="436"/>
      <point x="426" y="439" type="curve" smooth="yes"/>
      <point x="426" y="440"/>
      <point x="425" y="445"/>
    </contour>
  </outline>
</glyph>
<glyph name="exclamdown" format="1">
  <advance width="303"/>
  <unicode hex="00A1"/>
  <outline>
    <contour>
      <point x="251" y="12" type="curve" smooth="yes"/>
      <point x="250" y="3"/>
      <point x="246" y="0"/>
      <point x="238" y="1" type="curve" smooth="yes"/>
      <point x="211" y="2"/>
      <point x="107" y="3"/>
      <point x="82" y="1" type="curve" smooth="yes"/>
      <point x="77" y="0"/>
      <point x="71" y="4"/>
      <point x="71" y="11" type="curve" smooth="yes"/>
      <point x="70" y="14"/>
      <point x="69" y="20"/>
      <point x="71" y="26" type="curve" smooth="yes"/>
      <point x="76" y="32"/>
      <point x="79" y="36"/>
      <point x="90" y="36" type="curve" smooth="yes"/>
      <point x="97" y="36"/>
      <point x="106" y="37"/>
      <point x="113" y="39" type="curve" smooth="yes"/>
      <point x="130" y="39"/>
      <point x="131" y="66"/>
      <point x="131" y="80" type="curve" smooth="yes"/>
      <point x="131" y="252" type="line" smooth="yes"/>
      <point x="130" y="260"/>
      <point x="126" y="271"/>
      <point x="119" y="267" type="curve" smooth="yes"/>
      <point x="100" y="256"/>
      <point x="87" y="252"/>
      <point x="72" y="250" type="curve" smooth="yes"/>
      <point x="68" y="249"/>
      <point x="65" y="252"/>
      <point x="61" y="255" type="curve" smooth="yes"/>
      <point x="56" y="264" type="line" smooth="yes"/>
      <point x="56" y="268"/>
      <point x="57" y="273"/>
      <point x="60" y="275" type="curve" smooth="yes"/>
      <point x="106" y="304"/>
      <point x="132" y="321"/>
      <point x="149" y="347" type="curve" smooth="yes"/>
      <point x="150" y="350"/>
      <point x="158" y="355"/>
      <point x="166" y="356" type="curve" smooth="yes"/>
      <point x="181" y="356" type="line" smooth="yes"/>
      <point x="191" y="356"/>
      <point x="194" y="347"/>
      <point x="196" y="341" type="curve" smooth="yes"/>
      <point x="196" y="74" type="line" smooth="yes"/>
      <point x="196" y="43"/>
      <point x="204" y="38"/>
      <point x="237" y="37" type="curve" smooth="yes"/>
      <point x="246" y="37"/>
      <point x="249" y="32"/>
      <point x="251" y="24" type="curve" smooth="yes"/>
      <point x="251" y="23"/>
      <point x="251" y="14"/>
    </contour>
  </outline>
</glyph>
<glyph name="cent" format="1">
  <advance width="349"/>
  <unicode hex="00A2"/>
  <outline>
    <contour>
      <point x="324" y="104" type="curve" smooth="yes"/>
      <point x="322" y="97"/>
      <point x="316" y="94"/>
      <point x="311" y="94" type="curve" smooth="yes"/>
      <point x="275" y="92" type="line" smooth="yes"/>
      <point x="274" y="92"/>
      <point x="264" y="87"/>
      <point x="264" y="80" type="curve" smooth="yes"/>
      <point x="265" y="54"/>
      <point x="266" y="35"/>
      <point x="264" y="15" type="curve" smooth="yes"/>
      <point x="264" y="10"/>
      <point x="261" y="0"/>
      <point x="248" y="-1" type="curve" smooth="yes"/>
      <point x="243" y="0"/>
      <point x="227" y="0"/>
      <point x="217" y="0" type="curve" smooth="yes"/>
      <point x="206" y="0"/>
      <point x="200" y="7"/>
      <point x="200" y="15" type="curve" smooth="yes"/>
      <point x="199" y="34"/>
      <point x="199" y="58"/>
      <point x="200" y="79" type="curve" smooth="yes"/>
      <point x="198" y="85"/>
      <point x="193" y="91"/>
      <point x="187" y="92" type="curve" smooth="yes"/>
      <point x="151" y="90"/>
      <point x="94" y="91"/>
      <point x="47" y="91" type="curve" smooth="yes"/>
      <point x="36" y="91"/>
      <point x="33" y="98"/>
      <point x="33" y="104" type="curve" smooth="yes"/>
      <point x="33" y="118"/>
      <point x="33" y="122"/>
      <point x="42" y="134" type="curve" smooth="yes"/>
      <point x="72" y="172"/>
      <point x="139" y="248"/>
      <point x="217" y="344" type="curve" smooth="yes"/>
      <point x="223" y="351"/>
      <point x="229" y="358"/>
      <point x="241" y="358" type="curve" smooth="yes"/>
      <point x="249" y="358" type="line" smooth="yes"/>
      <point x="263" y="355"/>
      <point x="261" y="350"/>
      <point x="263" y="339" type="curve" smooth="yes"/>
      <point x="263" y="154" type="line" smooth="yes"/>
      <point x="264" y="150"/>
      <point x="267" y="143"/>
      <point x="270" y="142" type="curve" smooth="yes"/>
      <point x="310" y="143" type="line" smooth="yes"/>
      <point x="317" y="142"/>
      <point x="322" y="143"/>
      <point x="325" y="133" type="curve" smooth="yes"/>
      <point x="328" y="125"/>
      <point x="324" y="112"/>
    </contour>
    <contour>
      <point x="202" y="256" type="curve" smooth="yes"/>
      <point x="200" y="263"/>
      <point x="198" y="268"/>
      <point x="191" y="260" type="curve" smooth="yes"/>
      <point x="154" y="213"/>
      <point x="122" y="175"/>
      <point x="105" y="151" type="curve" smooth="yes"/>
      <point x="100" y="146"/>
      <point x="101" y="140"/>
      <point x="115" y="140" type="curve" smooth="yes"/>
      <point x="141" y="140"/>
      <point x="158" y="140"/>
      <point x="191" y="141" type="curve" smooth="yes"/>
      <point x="194" y="141"/>
      <point x="199" y="145"/>
      <point x="200" y="150" type="curve" smooth="yes"/>
      <point x="201" y="180"/>
      <point x="203" y="219"/>
    </contour>
  </outline>
</glyph>
<glyph name="sterling" format="1">
  <advance width="349"/>
  <unicode hex="00A3"/>
  <outline>
    <contour>
      <point x="145" y="-8" type="curve" smooth="yes"/>
      <point x="91" y="-8"/>
      <point x="30" y="15"/>
      <point x="30" y="44" type="curve" smooth="yes"/>
      <point x="30" y="57"/>
      <point x="50" y="77"/>
      <point x="66" y="77" type="curve" smooth="yes"/>
      <point x="83" y="77"/>
      <point x="96" y="63"/>
      <point x="108" y="52" type="curve" smooth="yes"/>
      <point x="125" y="36"/>
      <point x="149" y="23"/>
      <point x="168" y="23" type="curve" smooth="yes"/>
      <point x="216" y="23"/>
      <point x="243" y="62"/>
      <point x="244" y="101" type="curve" smooth="yes"/>
      <point x="245" y="141"/>
      <point x="229" y="167"/>
      <point x="193" y="167" type="curve" smooth="yes"/>
      <point x="182" y="167"/>
      <point x="163" y="164"/>
      <point x="149" y="157" type="curve" smooth="yes"/>
      <point x="143" y="153"/>
      <point x="140" y="165"/>
      <point x="136" y="173" type="curve" smooth="yes"/>
      <point x="131" y="180"/>
      <point x="137" y="190"/>
      <point x="141" y="191" type="curve" smooth="yes"/>
      <point x="162" y="199"/>
      <point x="178" y="202"/>
      <point x="195" y="216" type="curve" smooth="yes"/>
      <point x="218" y="235"/>
      <point x="223" y="256"/>
      <point x="223" y="269" type="curve" smooth="yes"/>
      <point x="223" y="291"/>
      <point x="198" y="311"/>
      <point x="165" y="311" type="curve" smooth="yes"/>
      <point x="135" y="311"/>
      <point x="110" y="299"/>
      <point x="89" y="269" type="curve" smooth="yes"/>
      <point x="82" y="260"/>
      <point x="49" y="269"/>
      <point x="57" y="283" type="curve" smooth="yes"/>
      <point x="84" y="331"/>
      <point x="134" y="360"/>
      <point x="189" y="360" type="curve" smooth="yes"/>
      <point x="243" y="360"/>
      <point x="288" y="327"/>
      <point x="288" y="287" type="curve" smooth="yes"/>
      <point x="288" y="264"/>
      <point x="280" y="236"/>
      <point x="256" y="216" type="curve" smooth="yes"/>
      <point x="247" y="209"/>
      <point x="255" y="204"/>
      <point x="260" y="201" type="curve" smooth="yes"/>
      <point x="288" y="186"/>
      <point x="317" y="156"/>
      <point x="317" y="115" type="curve" smooth="yes"/>
      <point x="317" y="44"/>
      <point x="240" y="-8"/>
    </contour>
  </outline>
</glyph>
<glyph name="macron" format="1">
  <advance width="349"/>
  <unicode hex="00AF"/>
  <outline>
    <contour>
      <point x="341" y="590" type="line" smooth="yes"/>
      <point x="341" y="577"/>
      <point x="333" y="575"/>
      <point x="318" y="575" type="curve" smooth="yes"/>
      <point x="26" y="575" type="line" smooth="yes"/>
      <point x="11" y="575"/>
      <point x="9" y="583"/>
      <point x="9" y="594" type="curve" smooth="yes"/>
      <point x="9" y="639" type="line" smooth="yes"/>
      <point x="9" y="649"/>
      <point x="22" y="650"/>
      <point x="30" y="650" type="curve" smooth="yes"/>
      <point x="33" y="650"/>
      <point x="37" y="650"/>
      <point x="40" y="650" type="curve" smooth="yes"/>
      <point x="321" y="650" type="line" smooth="yes"/>
      <point x="335" y="650"/>
      <point x="341" y="648"/>
      <point x="341" y="634" type="curve" smooth="yes"/>
    </contour>
  </outline>
</glyph>
<glyph name="degree" format="1">
  <advance width="332"/>
  <unicode hex="00B0"/>
  <outline>
    <contour>
      <point x="239" y="491" type="curve" smooth="yes"/>
      <point x="283" y="469"/>
      <point x="307" y="443"/>
      <point x="307" y="405" type="curve" smooth="yes"/>
      <point x="307" y="343"/>
      <point x="243" y="298"/>
      <point x="168" y="298" type="curve" smooth="yes"/>
      <point x="96" y="298"/>
      <point x="29" y="332"/>
      <point x="29" y="388" type="curve" smooth="yes"/>
      <point x="29" y="430"/>
      <point x="47" y="455"/>
      <point x="86" y="475" type="curve" smooth="yes"/>
      <point x="98" y="480"/>
      <point x="90" y="486"/>
      <point x="84" y="489" type="curve" smooth="yes"/>
      <point x="49" y="509"/>
      <point x="35" y="534"/>
      <point x="35" y="566" type="curve" smooth="yes"/>
      <point x="35" y="620"/>
      <point x="100" y="660"/>
      <point x="167" y="660" type="curve" smooth="yes"/>
      <point x="234" y="660"/>
      <point x="285" y="625"/>
      <point x="285" y="575" type="curve" smooth="yes"/>
      <point x="285" y="545"/>
      <point x="270" y="521"/>
      <point x="236" y="503" type="curve" smooth="yes"/>
      <point x="231" y="500"/>
      <point x="230" y="496"/>
    </contour>
    <contour>
      <point x="166" y="632" type="curve" smooth="yes"/>
      <point x="126" y="632"/>
      <point x="102" y="608"/>
      <point x="102" y="581" type="curve" smooth="yes"/>
      <point x="102" y="547"/>
      <point x="139" y="534"/>
      <point x="180" y="520" type="curve" smooth="yes"/>
      <point x="186" y="518"/>
      <point x="190" y="519"/>
      <point x="195" y="522" type="curve" smooth="yes"/>
      <point x="218" y="537"/>
      <point x="225" y="551"/>
      <point x="225" y="575" type="curve" smooth="yes"/>
      <point x="225" y="609"/>
      <point x="203" y="632"/>
    </contour>
    <contour>
      <point x="222" y="426" type="curve" smooth="yes"/>
      <point x="209" y="436"/>
      <point x="187" y="449"/>
      <point x="157" y="458" type="curve" smooth="yes"/>
      <point x="147" y="461"/>
      <point x="144" y="461"/>
      <point x="140" y="459" type="curve" smooth="yes"/>
      <point x="107" y="441"/>
      <point x="96" y="422"/>
      <point x="96" y="395" type="curve" smooth="yes"/>
      <point x="96" y="355"/>
      <point x="127" y="333"/>
      <point x="169" y="333" type="curve" smooth="yes"/>
      <point x="211" y="333"/>
      <point x="239" y="355"/>
      <point x="239" y="390" type="curve" smooth="yes"/>
      <point x="239" y="404"/>
      <point x="233" y="417"/>
    </contour>
  </outline>
</glyph>
<glyph name="acute" format="1">
  <advance width="349"/>
  <unicode hex="00B4"/>
  <outline>
    <contour>
      <point x="288" y="723" type="curve" smooth="yes"/>
      <point x="288" y="721"/>
      <point x="287" y="719"/>
      <point x="287" y="718" type="curve" smooth="yes"/>
      <point x="144" y="546" type="line" smooth="yes"/>
      <point x="138" y="539"/>
      <point x="113" y="539"/>
      <point x="118" y="555" type="curve" smooth="yes"/>
      <point x="167" y="719" type="line" smooth="yes"/>
      <point x="171" y="727"/>
      <point x="179" y="732"/>
      <point x="186" y="732" type="curve" smooth="yes"/>
      <point x="274" y="732" type="line" smooth="yes"/>
      <point x="281" y="733"/>
      <point x="290" y="731"/>
    </contour>
  </outline>
</glyph>
<glyph name="ordmasculine" format="1">
  <advance width="392"/>
  <unicode hex="00BA"/>
  <outline>
    <contour>
      <point x="197" y="-9" type="curve" smooth="yes"/>
      <point x="110" y="-9"/>
      <point x="50" y="74"/>
      <point x="50" y="173" type="curve" smooth="yes"/>
      <point x="50" y="271"/>
      <point x="110" y="354"/>
      <point x="197" y="354" type="curve" smooth="yes"/>
      <point x="283" y="354"/>
      <point x="343" y="271"/>
      <point x="343" y="173" type="curve" smooth="yes"/>
      <point x="343" y="74"/>
      <point x="284" y="-9"/>
    </contour>
    <contour>
      <point x="197" y="318" type="curve" smooth="yes"/>
      <point x="125" y="318"/>
      <point x="122" y="222"/>
      <point x="122" y="173" type="curve" smooth="yes"/>
      <point x="122" y="94"/>
      <point x="144" y="31"/>
      <point x="197" y="31" type="curve" smooth="yes"/>
      <point x="255" y="31"/>
      <point x="271" y="84"/>
      <point x="271" y="173" type="curve" smooth="yes"/>
      <point x="271" y="221"/>
      <point x="266" y="318"/>
    </contour>
  </outline>
</glyph>
<glyph name="onequarter" format="1">
  <advance width="721"/>
  <unicode hex="00BC"/>
  <outline>
    <contour>
      <point x="695" y="95" type="curve" smooth="yes"/>
      <point x="694" y="90"/>
      <point x="692" y="86"/>
      <point x="689" y="86" type="curve" smooth="yes"/>
      <point x="644" y="86" type="line" smooth="yes"/>
      <point x="635" y="85"/>
      <point x="636" y="77"/>
      <point x="633" y="67" type="curve" smooth="yes"/>
      <point x="633" y="0" type="line" smooth="yes"/>
      <point x="632" y="-11"/>
      <point x="627" y="-15"/>
      <point x="618" y="-15" type="curve" smooth="yes"/>
      <point x="612" y="-15"/>
      <point x="590" y="-17"/>
      <point x="584" y="-15" type="curve" smooth="yes"/>
      <point x="574" y="-14"/>
      <point x="569" y="-10"/>
      <point x="567" y="-2" type="curve" smooth="yes"/>
      <point x="567" y="77" type="line" smooth="yes"/>
      <point x="565" y="83"/>
      <point x="561" y="85"/>
      <point x="553" y="86" type="curve" smooth="yes"/>
      <point x="518" y="83"/>
      <point x="463" y="85"/>
      <point x="431" y="86" type="curve" smooth="yes"/>
      <point x="421" y="86"/>
      <point x="419" y="94"/>
      <point x="419" y="98" type="curve" smooth="yes"/>
      <point x="419" y="111" type="line"/>
      <point x="461" y="168"/>
      <point x="543" y="274"/>
      <point x="596" y="338" type="curve"/>
      <point x="606" y="341"/>
      <point x="606" y="342"/>
      <point x="618" y="340" type="curve" smooth="yes"/>
      <point x="623" y="339"/>
      <point x="634" y="335"/>
      <point x="633" y="328" type="curve" smooth="yes"/>
      <point x="633" y="142" type="line" smooth="yes"/>
      <point x="633" y="139"/>
      <point x="635" y="132"/>
      <point x="642" y="132" type="curve" smooth="yes"/>
      <point x="685" y="132" type="line" smooth="yes"/>
      <point x="694" y="133"/>
      <point x="695" y="127"/>
      <point x="695" y="108" type="curve" smooth="yes"/>
      <point x="695" y="105"/>
      <point x="696" y="100"/>
    </contour>
    <contour>
      <point x="152" y="-22" type="line" smooth="yes"/>
      <point x="147" y="-29"/>
      <point x="143" y="-36"/>
      <point x="133" y="-36" type="curve" smooth="yes"/>
      <point x="106" y="-34" type="line" smooth="yes"/>
      <point x="93" y="-33"/>
      <point x="94" y="-21"/>
      <point x="99" y="-13" type="curve" smooth="yes"/>
      <point x="567" y="650" type="line" smooth="yes"/>
      <point x="572" y="657"/>
      <point x="577" y="661"/>
      <point x="586" y="660" type="curve" smooth="yes"/>
      <point x="613" y="657" type="line" smooth="yes"/>
      <point x="622" y="656"/>
      <point x="625" y="648"/>
      <point x="620" y="641" type="curve" smooth="yes"/>
    </contour>
    <contour>
      <point x="243" y="298" type="curve" smooth="yes"/>
      <point x="190" y="300"/>
      <point x="132" y="300"/>
      <point x="80" y="298" type="curve" smooth="yes"/>
      <point x="75" y="298"/>
      <point x="72" y="306"/>
      <point x="72" y="314" type="curve" smooth="yes"/>
      <point x="73" y="321"/>
      <point x="76" y="329"/>
      <point x="80" y="330" type="curve" smooth="yes"/>
      <point x="108" y="332" type="line" smooth="yes"/>
      <point x="120" y="333"/>
      <point x="128" y="341"/>
      <point x="128" y="355" type="curve" smooth="yes"/>
      <point x="129" y="405"/>
      <point x="132" y="529"/>
      <point x="128" y="560" type="curve" smooth="yes"/>
      <point x="128" y="565"/>
      <point x="124" y="566"/>
      <point x="122" y="565" type="curve" smooth="yes"/>
      <point x="111" y="558"/>
      <point x="102" y="553"/>
      <point x="93" y="549" type="curve" smooth="yes"/>
      <point x="84" y="546"/>
      <point x="75" y="542"/>
      <point x="63" y="538" type="curve" smooth="yes"/>
      <point x="50" y="537"/>
      <point x="43" y="554"/>
      <point x="49" y="561" type="curve" smooth="yes"/>
      <point x="89" y="585"/>
      <point x="132" y="618"/>
      <point x="152" y="642" type="curve" smooth="yes"/>
      <point x="156" y="646"/>
      <point x="194" y="647"/>
      <point x="194" y="640" type="curve" smooth="yes"/>
      <point x="197" y="549"/>
      <point x="195" y="412"/>
      <point x="194" y="355" type="curve" smooth="yes"/>
      <point x="194" y="342"/>
      <point x="199" y="333"/>
      <point x="214" y="333" type="curve" smooth="yes"/>
      <point x="244" y="332" type="line" smooth="yes"/>
      <point x="246" y="332"/>
      <point x="250" y="322"/>
      <point x="251" y="314" type="curve" smooth="yes"/>
      <point x="251" y="305"/>
      <point x="246" y="298"/>
    </contour>
    <contour>
      <point x="570" y="230" type="line" smooth="yes"/>
      <point x="569" y="235"/>
      <point x="572" y="243"/>
      <point x="567" y="241" type="curve" smooth="yes"/>
      <point x="544" y="214"/>
      <point x="506" y="164"/>
      <point x="487" y="138" type="curve" smooth="yes"/>
      <point x="485" y="134"/>
      <point x="490" y="132"/>
      <point x="495" y="132" type="curve" smooth="yes"/>
      <point x="513" y="131"/>
      <point x="543" y="132"/>
      <point x="560" y="132" type="curve" smooth="yes"/>
      <point x="566" y="133"/>
      <point x="567" y="144"/>
      <point x="567" y="148" type="curve" smooth="yes"/>
    </contour>
  </outline>
</glyph>
<glyph name="questiondown" format="1">
  <advance width="371"/>
  <unicode hex="00BF"/>
  <outline>
    <contour>
      <point x="217" y="372" type="curve" smooth="yes"/>
      <point x="183" y="372"/>
      <point x="158" y="396"/>
      <point x="158" y="429" type="curve" smooth="yes"/>
      <point x="158" y="460"/>
      <point x="183" y="484"/>
      <point x="217" y="484" type="curve" smooth="yes"/>
      <point x="250" y="484"/>
      <point x="276" y="461"/>
      <point x="276" y="429" type="curve" smooth="yes"/>
      <point x="276" y="396"/>
      <point x="250" y="372"/>
    </contour>
    <contour>
      <point x="234" y="-199" type="curve" smooth="yes"/>
      <point x="125" y="-199"/>
      <point x="50" y="-120"/>
      <point x="50" y="-6" type="curve" smooth="yes"/>
      <point x="50" y="58"/>
      <point x="74" y="109"/>
      <point x="121" y="142" type="curve" smooth="yes"/>
      <point x="144" y="158"/>
      <point x="155" y="163"/>
      <point x="193" y="177" type="curve" smooth="yes"/>
      <point x="225" y="189"/>
      <point x="235" y="201"/>
      <point x="235" y="220" type="curve" smooth="yes"/>
      <point x="235" y="240"/>
      <point x="231" y="251"/>
      <point x="196" y="291" type="curve" smooth="yes"/>
      <point x="188" y="300"/>
      <point x="196" y="305"/>
      <point x="198" y="306" type="curve" smooth="yes"/>
      <point x="207" y="310"/>
      <point x="224" y="307"/>
      <point x="229" y="299" type="curve" smooth="yes"/>
      <point x="265" y="255"/>
      <point x="281" y="221"/>
      <point x="281" y="187" type="curve" smooth="yes"/>
      <point x="281" y="138"/>
      <point x="258" y="113"/>
      <point x="201" y="91" type="curve" smooth="yes"/>
      <point x="111" y="57"/>
      <point x="86" y="31"/>
      <point x="86" y="-22" type="curve" smooth="yes"/>
      <point x="86" y="-75"/>
      <point x="122" y="-108"/>
      <point x="186" y="-108" type="curve" smooth="yes"/>
      <point x="215" y="-108"/>
      <point x="238" y="-101"/>
      <point x="264" y="-101" type="curve" smooth="yes"/>
      <point x="304" y="-101"/>
      <point x="330" y="-114"/>
      <point x="330" y="-144" type="curve" smooth="yes"/>
      <point x="330" y="-182"/>
      <point x="290" y="-199"/>
    </contour>
  </outline>
</glyph>
<glyph name="atilde" format="1">
  <advance width="513"/>
  <unicode hex="00E3"/>
  <outline>
    <contour>
      <point x="490" y="14" type="curve" smooth="yes"/>
      <point x="490" y="5"/>
      <point x="486" y="-3"/>
      <point x="478" y="-2" type="curve" smooth="yes"/>
      <point x="431" y="-1"/>
      <point x="339" y="-1"/>
      <point x="292" y="-3" type="curve" smooth="yes"/>
      <point x="284" y="-3"/>
      <point x="282" y="5"/>
      <point x="282" y="15" type="curve" smooth="yes"/>
      <point x="282" y="22"/>
      <point x="285" y="32"/>
      <point x="293" y="32" type="curve" smooth="yes"/>
      <point x="300" y="32" type="line" smooth="yes"/>
      <point x="341" y="32"/>
      <point x="362" y="32"/>
      <point x="350" y="65" type="curve" smooth="yes"/>
      <point x="334" y="111"/>
      <point x="323" y="140"/>
      <point x="307" y="187" type="curve" smooth="yes"/>
      <point x="303" y="196"/>
      <point x="292" y="198"/>
      <point x="288" y="199" type="curve" smooth="yes"/>
      <point x="208" y="199"/>
      <point x="201" y="198"/>
      <point x="189" y="198" type="curve" smooth="yes"/>
      <point x="179" y="198"/>
      <point x="178" y="195"/>
      <point x="172" y="188" type="curve" smooth="yes"/>
      <point x="138" y="92" type="line" smooth="yes"/>
      <point x="134" y="80"/>
      <point x="128" y="60"/>
      <point x="128" y="48" type="curve" smooth="yes"/>
      <point x="128" y="31"/>
      <point x="163" y="33"/>
      <point x="173" y="33" type="curve" smooth="yes"/>
      <point x="177" y="33"/>
      <point x="181" y="33"/>
      <point x="185" y="33" type="curve" smooth="yes"/>
      <point x="198" y="31"/>
      <point x="196" y="-3"/>
      <point x="184" y="-3" type="curve" smooth="yes"/>
      <point x="145" y="-2"/>
      <point x="71" y="-1"/>
      <point x="26" y="-3" type="curve" smooth="yes"/>
      <point x="15" y="-3"/>
      <point x="9" y="32"/>
      <point x="28" y="33" type="curve" smooth="yes"/>
      <point x="40" y="33"/>
      <point x="55" y="32"/>
      <point x="63" y="42" type="curve" smooth="yes"/>
      <point x="73" y="54"/>
      <point x="82" y="83"/>
      <point x="87" y="98" type="curve" smooth="yes"/>
      <point x="215" y="463" type="line" smooth="yes"/>
      <point x="213" y="468"/>
      <point x="211" y="472"/>
      <point x="210" y="477" type="curve" smooth="yes"/>
      <point x="208" y="483"/>
      <point x="212" y="492"/>
      <point x="221" y="493" type="curve" smooth="yes"/>
      <point x="230" y="495"/>
      <point x="245" y="496"/>
      <point x="265" y="495" type="curve" smooth="yes"/>
      <point x="283" y="493"/>
      <point x="284" y="479"/>
      <point x="288" y="466" type="curve" smooth="yes"/>
      <point x="369" y="242"/>
      <point x="395" y="168"/>
      <point x="410" y="126" type="curve" smooth="yes"/>
      <point x="417" y="108"/>
      <point x="423" y="89"/>
      <point x="430" y="71" type="curve" smooth="yes"/>
      <point x="440" y="39"/>
      <point x="446" y="32"/>
      <point x="474" y="32" type="curve" smooth="yes"/>
      <point x="478" y="32" type="line" smooth="yes"/>
      <point x="486" y="32"/>
      <point x="490" y="23"/>
    </contour>
    <contour>
      <point x="246" y="371" type="curve" smooth="yes"/>
      <point x="244" y="376"/>
      <point x="237" y="377"/>
      <point x="237" y="375" type="curve" smooth="yes"/>
      <point x="195" y="257" type="line" smooth="yes"/>
      <point x="193" y="246"/>
      <point x="199" y="245"/>
      <point x="213" y="245" type="curve" smooth="yes"/>
      <point x="269" y="245" type="line" smooth="yes"/>
      <point x="279" y="245"/>
      <point x="283" y="246"/>
      <point x="282" y="256" type="curve" smooth="yes"/>
      <point x="280" y="261"/>
      <point x="259" y="331"/>
    </contour>
    <contour>
      <point x="404" y="668" type="curve" smooth="yes"/>
      <point x="404" y="597"/>
      <point x="363" y="544"/>
      <point x="305" y="544" type="curve" smooth="yes"/>
      <point x="278" y="544"/>
      <point x="246" y="557"/>
      <point x="208" y="583" type="curve" smooth="yes"/>
      <point x="171" y="609"/>
      <point x="162" y="612"/>
      <point x="149" y="612" type="curve" smooth="yes"/>
      <point x="130" y="612"/>
      <point x="120" y="601"/>
      <point x="112" y="565" type="curve" smooth="yes"/>
      <point x="112" y="561"/>
      <point x="110" y="557"/>
      <point x="109" y="547" type="curve" smooth="yes"/>
      <point x="105" y="539"/>
      <point x="84" y="534"/>
      <point x="82" y="547" type="curve" smooth="yes"/>
      <point x="86" y="633"/>
      <point x="119" y="682"/>
      <point x="180" y="682" type="curve" smooth="yes"/>
      <point x="210" y="682"/>
      <point x="233" y="673"/>
      <point x="278" y="642" type="curve" smooth="yes"/>
      <point x="309" y="621"/>
      <point x="325" y="615"/>
      <point x="337" y="615" type="curve" smooth="yes"/>
      <point x="358" y="615"/>
      <point x="369" y="627"/>
      <point x="377" y="681" type="curve" smooth="yes"/>
      <point x="377" y="685"/>
      <point x="384" y="687"/>
      <point x="390" y="687" type="curve" smooth="yes"/>
      <point x="396" y="688"/>
      <point x="402" y="685"/>
      <point x="402" y="681" type="curve" smooth="yes"/>
      <point x="404" y="675"/>
      <point x="404" y="671"/>
    </contour>
  </outline>
</glyph>
<glyph name="ugrave" format="1">
  <advance width="594"/>
  <unicode hex="00F9"/>
  <outline>
    <contour>
      <point x="546" y="442" type="curve"/>
      <point x="493" y="440"/>
      <point x="488" y="436"/>
      <point x="488" y="357" type="curve" smooth="yes"/>
      <point x="488" y="224" type="line" smooth="yes"/>
      <point x="488" y="183"/>
      <point x="490" y="145"/>
      <point x="475" y="106" type="curve" smooth="yes"/>
      <point x="465" y="82"/>
      <point x="449" y="59"/>
      <point x="429" y="41" type="curve" smooth="yes"/>
      <point x="388" y="3"/>
      <point x="356" y="-14"/>
      <point x="288" y="-14" type="curve" smooth="yes"/>
      <point x="192" y="-14"/>
      <point x="139" y="26"/>
      <point x="108" y="97" type="curve" smooth="yes"/>
      <point x="93" y="130"/>
      <point x="91" y="148"/>
      <point x="91" y="217" type="curve" smooth="yes"/>
      <point x="91" y="375" type="line"/>
      <point x="91" y="404" type="line" smooth="yes"/>
      <point x="91" y="440"/>
      <point x="78" y="439"/>
      <point x="64" y="439" type="curve" smooth="yes"/>
      <point x="56" y="439"/>
      <point x="47" y="439"/>
      <point x="40" y="441" type="curve" smooth="yes"/>
      <point x="33" y="442"/>
      <point x="27" y="447"/>
      <point x="26" y="460" type="curve" smooth="yes"/>
      <point x="25" y="473"/>
      <point x="34" y="478"/>
      <point x="47" y="477" type="curve" smooth="yes"/>
      <point x="95" y="475"/>
      <point x="178" y="475"/>
      <point x="223" y="478" type="curve" smooth="yes"/>
      <point x="233" y="477"/>
      <point x="235" y="465"/>
      <point x="235" y="459" type="curve" smooth="yes"/>
      <point x="234" y="444"/>
      <point x="231" y="442"/>
      <point x="216" y="442" type="curve" smooth="yes"/>
      <point x="178" y="442"/>
      <point x="171" y="435"/>
      <point x="170" y="399" type="curve" smooth="yes"/>
      <point x="169" y="374" type="line"/>
      <point x="169" y="228" type="line" smooth="yes"/>
      <point x="169" y="175"/>
      <point x="167" y="125"/>
      <point x="209" y="84" type="curve" smooth="yes"/>
      <point x="236" y="58"/>
      <point x="255" y="44"/>
      <point x="303" y="44" type="curve" smooth="yes"/>
      <point x="375" y="44"/>
      <point x="408" y="75"/>
      <point x="426" y="126" type="curve" smooth="yes"/>
      <point x="437" y="158"/>
      <point x="437" y="190"/>
      <point x="437" y="224" type="curve" smooth="yes"/>
      <point x="437" y="354" type="line" smooth="yes"/>
      <point x="437" y="372"/>
      <point x="437" y="386"/>
      <point x="437" y="397" type="curve" smooth="yes"/>
      <point x="434" y="433"/>
      <point x="422" y="438"/>
      <point x="391" y="440" type="curve" smooth="yes"/>
      <point x="376" y="441"/>
      <point x="364" y="443"/>
      <point x="364" y="461" type="curve" smooth="yes"/>
      <point x="364" y="475"/>
      <point x="370" y="478"/>
      <point x="383" y="477" type="curve" smooth="yes"/>
      <point x="428" y="475"/>
      <point x="507" y="476"/>
      <point x="545" y="478" type="curve" smooth="yes"/>
      <point x="553" y="478"/>
      <point x="557" y="468"/>
      <point x="557" y="461" type="curve" smooth="yes"/>
      <point x="557" y="456"/>
      <point x="555" y="447"/>
    </contour>
    <contour>
      <point x="340" y="562" type="curve" smooth="yes"/>
      <point x="341" y="549"/>
      <point x="323" y="548"/>
      <point x="315" y="555" type="curve" smooth="yes"/>
      <point x="283" y="597"/>
      <point x="224" y="666"/>
      <point x="181" y="713" type="curve" smooth="yes"/>
      <point x="175" y="719"/>
      <point x="183" y="732"/>
      <point x="195" y="732" type="curve" smooth="yes"/>
      <point x="272" y="733" type="line" smooth="yes"/>
      <point x="281" y="733"/>
      <point x="286" y="733"/>
      <point x="291" y="725" type="curve" smooth="yes"/>
      <point x="308" y="680"/>
      <point x="330" y="605"/>
    </contour>
  </outline>
</glyph>
<glyph name="circumflex" format="1">
  <advance width="349"/>
  <unicode hex="02C6"/>
  <outline>
    <contour>
      <point x="315" y="561" type="line" smooth="yes"/>
      <point x="317" y="556"/>
      <point x="320" y="549"/>
      <point x="314" y="548" type="curve" smooth="yes"/>
      <point x="307" y="546"/>
      <point x="297" y="547"/>
      <point x="294" y="550" type="curve" smooth="yes"/>
      <point x="172" y="654" type="line"/>
      <point x="57" y="550" type="line" smooth="yes"/>
      <point x="49" y="543"/>
      <point x="29" y="548"/>
      <point x="33" y="556" type="curve" smooth="yes"/>
      <point x="122" y="712" type="line" smooth="yes"/>
      <point x="125" y="717"/>
      <point x="130" y="720"/>
      <point x="135" y="722" type="curve" smooth="yes"/>
      <point x="142" y="723"/>
      <point x="197" y="724"/>
      <point x="210" y="723" type="curve" smooth="yes"/>
      <point x="220" y="722"/>
      <point x="222" y="721"/>
      <point x="227" y="713" type="curve" smooth="yes"/>
    </contour>
  </outline>
</glyph>
<glyph name="breve" format="1">
  <advance width="349"/>
  <unicode hex="02D8"/>
  <outline>
    <contour>
      <point x="325" y="706" type="curve" smooth="yes"/>
      <point x="318" y="616"/>
      <point x="256" y="556"/>
      <point x="175" y="556" type="curve" smooth="yes"/>
      <point x="94" y="556"/>
      <point x="33" y="615"/>
      <point x="25" y="706" type="curve" smooth="yes"/>
      <point x="25" y="712"/>
      <point x="48" y="716"/>
      <point x="51" y="707" type="curve" smooth="yes"/>
      <point x="75" y="661"/>
      <point x="110" y="642"/>
      <point x="176" y="642" type="curve" smooth="yes"/>
      <point x="243" y="642"/>
      <point x="283" y="665"/>
      <point x="298" y="707" type="curve" smooth="yes"/>
      <point x="300" y="710"/>
      <point x="307" y="711"/>
      <point x="313" y="711" type="curve" smooth="yes"/>
      <point x="320" y="711"/>
      <point x="326" y="710"/>
    </contour>
  </outline>
</glyph>
<glyph name="trademark" format="1">
  <advance width="349"/>
  <unicode hex="2122"/>
  <outline>
    <contour>
      <point x="301" y="13" type="curve" smooth="yes"/>
      <point x="295" y="0"/>
      <point x="283" y="-1"/>
      <point x="269" y="-1" type="curve" smooth="yes"/>
      <point x="216" y="-1"/>
      <point x="146" y="3"/>
      <point x="54" y="-1" type="curve" smooth="yes"/>
      <point x="49" y="-1"/>
      <point x="36" y="1"/>
      <point x="32" y="7" type="curve" smooth="yes"/>
      <point x="30" y="12" type="line" smooth="yes"/>
      <point x="30" y="18"/>
      <point x="34" y="31"/>
      <point x="37" y="34" type="curve" smooth="yes"/>
      <point x="66" y="59"/>
      <point x="101" y="87"/>
      <point x="131" y="111" type="curve" smooth="yes"/>
      <point x="161" y="135"/>
      <point x="187" y="156"/>
      <point x="197" y="166" type="curve" smooth="yes"/>
      <point x="218" y="189"/>
      <point x="235" y="213"/>
      <point x="235" y="245" type="curve" smooth="yes"/>
      <point x="235" y="282"/>
      <point x="212" y="308"/>
      <point x="167" y="308" type="curve" smooth="yes"/>
      <point x="125" y="308"/>
      <point x="91" y="280"/>
      <point x="74" y="241" type="curve" smooth="yes"/>
      <point x="71" y="233"/>
      <point x="61" y="232"/>
      <point x="56" y="232" type="curve" smooth="yes"/>
      <point x="46" y="232"/>
      <point x="44" y="239"/>
      <point x="45" y="244" type="curve" smooth="yes"/>
      <point x="57" y="309"/>
      <point x="111" y="355"/>
      <point x="188" y="362" type="curve"/>
      <point x="264" y="362"/>
      <point x="308" y="311"/>
      <point x="308" y="253" type="curve" smooth="yes"/>
      <point x="308" y="221"/>
      <point x="286" y="193"/>
      <point x="264" y="172" type="curve" smooth="yes"/>
      <point x="241" y="149"/>
      <point x="222" y="133"/>
      <point x="203" y="119" type="curve" smooth="yes"/>
      <point x="184" y="104"/>
      <point x="165" y="91"/>
      <point x="141" y="75" type="curve" smooth="yes"/>
      <point x="131" y="67"/>
      <point x="130" y="63"/>
      <point x="150" y="63" type="curve" smooth="yes"/>
      <point x="182" y="61"/>
      <point x="203" y="63"/>
      <point x="224" y="62" type="curve" smooth="yes"/>
      <point x="272" y="59"/>
      <point x="281" y="78"/>
      <point x="288" y="106" type="curve" smooth="yes"/>
      <point x="289" y="110"/>
      <point x="292" y="116"/>
      <point x="300" y="117" type="curve" smooth="yes"/>
      <point x="310" y="116" type="line" smooth="yes"/>
      <point x="317" y="116"/>
      <point x="318" y="106"/>
      <point x="317" y="98" type="curve" smooth="yes"/>
      <point x="316" y="83"/>
      <point x="306" y="21"/>
    </contour>
  </outline>
</glyph>
<glyph name="infinity" format="1">
  <advance width="349"/>
  <unicode hex="221E"/>
  <outline>
    <contour>
      <point x="141" y="-6" type="curve" smooth="yes"/>
      <point x="87" y="-6"/>
      <point x="38" y="20"/>
      <point x="38" y="46" type="curve" smooth="yes"/>
      <point x="38" y="60"/>
      <point x="54" y="79"/>
      <point x="70" y="79" type="curve" smooth="yes"/>
      <point x="94" y="79"/>
      <point x="113" y="49"/>
      <point x="131" y="36" type="curve" smooth="yes"/>
      <point x="139" y="31"/>
      <point x="148" y="27"/>
      <point x="159" y="27" type="curve" smooth="yes"/>
      <point x="204" y="27"/>
      <point x="230" y="54"/>
      <point x="230" y="100" type="curve" smooth="yes"/>
      <point x="230" y="146"/>
      <point x="202" y="164"/>
      <point x="147" y="164" type="curve" smooth="yes"/>
      <point x="123" y="165"/>
      <point x="106" y="157"/>
      <point x="83" y="147" type="curve" smooth="yes"/>
      <point x="79" y="144"/>
      <point x="74" y="143"/>
      <point x="69" y="146" type="curve" smooth="yes"/>
      <point x="62" y="150"/>
      <point x="61" y="153"/>
      <point x="61" y="162" type="curve" smooth="yes"/>
      <point x="66" y="210"/>
      <point x="69" y="288"/>
      <point x="67" y="329" type="curve"/>
      <point x="71" y="347"/>
      <point x="91" y="344"/>
      <point x="103" y="343" type="curve" smooth="yes"/>
      <point x="125" y="342"/>
      <point x="179" y="341"/>
      <point x="214" y="342" type="curve" smooth="yes"/>
      <point x="223" y="343"/>
      <point x="238" y="342"/>
      <point x="244" y="342" type="curve" smooth="yes"/>
      <point x="250" y="343"/>
      <point x="255" y="348"/>
      <point x="258" y="350" type="curve" smooth="yes"/>
      <point x="262" y="353"/>
      <point x="265" y="354"/>
      <point x="268" y="354" type="curve" smooth="yes"/>
      <point x="278" y="354" type="line" smooth="yes"/>
      <point x="284" y="351"/>
      <point x="284" y="344"/>
      <point x="283" y="336" type="curve" smooth="yes"/>
      <point x="277" y="289" type="line" smooth="yes"/>
      <point x="273" y="281"/>
      <point x="273" y="275"/>
      <point x="258" y="275" type="curve" smooth="yes"/>
      <point x="118" y="277" type="line" smooth="yes"/>
      <point x="113" y="276"/>
      <point x="108" y="271"/>
      <point x="106" y="265" type="curve" smooth="yes"/>
      <point x="105" y="226" type="line" smooth="yes"/>
      <point x="105" y="225"/>
      <point x="106" y="213"/>
      <point x="112" y="215" type="curve" smooth="yes"/>
      <point x="127" y="219"/>
      <point x="148" y="226"/>
      <point x="168" y="226" type="curve" smooth="yes"/>
      <point x="249" y="226"/>
      <point x="297" y="179"/>
      <point x="297" y="114" type="curve" smooth="yes"/>
      <point x="297" y="45"/>
      <point x="234" y="-6"/>
    </contour>
  </outline>
</glyph>
<glyph name="fl" format="1">
  <advance width="349"/>
  <unicode hex="FB02"/>
  <outline>
    <contour>
      <point x="179" y="297" type="curve" smooth="yes"/>
      <point x="100" y="297"/>
      <point x="48" y="355"/>
      <point x="48" y="440" type="curve" smooth="yes"/>
      <point x="48" y="512"/>
      <point x="83" y="625"/>
      <point x="223" y="659" type="curve" smooth="yes"/>
      <point x="229" y="660"/>
      <point x="240" y="662"/>
      <point x="243" y="655" type="curve" smooth="yes"/>
      <point x="249" y="642" type="line" smooth="yes"/>
      <point x="253" y="633"/>
      <point x="247" y="627"/>
      <point x="241" y="625" type="curve" smooth="yes"/>
      <point x="183" y="605"/>
      <point x="147" y="573"/>
      <point x="133" y="529" type="curve" smooth="yes"/>
      <point x="129" y="516"/>
      <point x="133" y="515"/>
      <point x="149" y="520" type="curve" smooth="yes"/>
      <point x="162" y="524"/>
      <point x="176" y="525"/>
      <point x="189" y="525" type="curve" smooth="yes"/>
      <point x="261" y="525"/>
      <point x="302" y="472"/>
      <point x="302" y="413" type="curve" smooth="yes"/>
      <point x="302" y="349"/>
      <point x="257" y="297"/>
    </contour>
    <contour>
      <point x="186" y="488" type="curve" smooth="yes"/>
      <point x="162" y="491"/>
      <point x="139" y="482"/>
      <point x="128" y="465" type="curve" smooth="yes"/>
      <point x="122" y="455"/>
      <point x="121" y="438"/>
      <point x="121" y="425" type="curve" smooth="yes"/>
      <point x="121" y="383"/>
      <point x="140" y="335"/>
      <point x="182" y="335" type="curve" smooth="yes"/>
      <point x="216" y="335"/>
      <point x="240" y="363"/>
      <point x="235" y="409" type="curve" smooth="yes"/>
      <point x="231" y="449"/>
      <point x="219" y="484"/>
    </contour>
  </outline>
</glyph>
